<svg xmlns="http://www.w3.org/2000/svg" viewBox="0 0 529.4 92.7"><path d="M527.9 27.6h-48.4v22.5h.6c0-8.9 4.5-21.9 19.4-21.9H516l-37.2 61.5v.4h50.5V66.7h-.6c0 9.8-4.5 22.8-19.4 22.8h-19L527.9 28v-.4zm-90 30.8c13.5 0 14.8 7.2 14.8 16.9h.6V40.9h-.6c0 9.5-1.3 16.9-13.9 16.9h-2.1V28.2h11c14.9 0 19.4 13 19.4 21.9h.6V27.6h-50.3v.6h8.9v61.4h-8.9v.6h51.2V66.7h-.6c0 9.8-4.5 22.8-19.4 22.8h-11.9V58.4h1.2zm-61 0c13.5 0 14.9 7.2 14.9 16.9h.6V40.9h-.6c0 9.5-1.3 16.9-13.9 16.9h-2.1V28.2h11c14.9 0 19.4 13 19.4 21.9h.6V27.6h-50.3v.6h9v61.4h-9v.6h51.2V66.7h-.7c0 9.8-4.5 22.8-19.4 22.8h-11.9V58.4h1.2zm-58.7-30.2c8.9 0 12.4 6.5 12.4 15.5 0 8.9-3.5 15.6-12.4 15.6h-11.1v-31h11.1v-.1zm32.9 52.4h-.5c-1.7 7.9-4.6 8.7-6 8.7-9.6 0 2.3-28.1-22.1-29.8 11.9-1.1 18.4-6.7 18.4-15.8 0-10.6-8.1-16.1-22.7-16.1h-30.3v.6h8.9v61.4h-8.9v.6H316v-.6h-8.9V59.7h11.8c17.7 0 2.7 31.7 20.5 31.7 4.5-.1 9.8-1 11.7-10.8m-102.4 11c-16.4 0-19.9-11.9-19.9-32.5s3.5-32.5 19.9-32.5 19.9 11.9 19.9 32.5-3.5 32.5-19.9 32.5m0-65.6c-17.2 0-31.1 14-31.1 33.1s13.9 33.1 31.1 33.1 31.1-14 31.1-33.1S265.9 26 248.7 26m-58.3 2.2c14.9 0 19.4 13 19.4 23.7h.6V27.6h-51.5v24.3h.6c0-10.7 4.5-23.7 19.4-23.7h.6v61.4h-8.9v.6h28.2v-.6h-8.9V28.2h.5zm-69.3 63.7c-17.2 0-28.6-17.2-28.6-36.1h-1v34.3h15.6c4.2 1.6 8.9 2.5 14 2.5 20.5 0 30-14.2 30-28 0-32.3-50.7-21.1-50.7-47 0-8.4 8.2-17 19.2-17 18 0 24.8 16.2 24.8 32.3h1V0l-12.9 2.6c-3.7-1.7-7.9-2.6-13-2.6-12.4 0-25.2 10.7-25.2 24.6 0 35.2 49.7 21.5 49.7 49 .1 9.3-9.1 18.3-22.9 18.3M53.9 36.6c0-3.2-2.8-6-6-6-.7 0-1.4.2-2.1.4 2.6-2.9 6.2-4.7 10.1-4.7 7.6 0 11 5.1 11 13.1 0 9.6-6.4 24.1-16 35.2L38.5 89.2h.1l-.1.1v.9h41.2V69.4h-.6c0 8.9-1.8 12.3-9.5 12.3H46.1l6-6.7c14-15.7 25.6-23.1 25.6-34.7 0-9.4-9.6-14.7-19.2-14.7-6.7 0-16.4 4.2-16.4 11 0 3.1 2.8 5.9 5.9 5.9 3.2 0 5.9-2.8 5.9-5.9M0 33.2h8.9v56.3H0v.6h28.2v-.6h-8.9V25.8h-.8l-9.3 6.8H0v.6z"/></svg>