<svg data-name="Слой 1" xmlns="http://www.w3.org/2000/svg" viewBox="0 0 340.86 63.48"><path d="M67.98.27h23.13v2.68H71.27v7.74h19.07v2.68H71.27v11.17h-3.29V.27zm50.14 12c3.65 0 5.19-1 5.19-3.52V6.54c0-2.72-1.17-3.59-6-3.59h-15v9.32zm-19-12h19.41c7 0 8.11 2.31 8.11 6.87v2c0 3.42-1.95 4.35-4.46 4.59v.07c3.35.6 4.15 2.34 4.15 4.56v6.2h-3.08v-5.35c0-3.79-1.84-4.26-4.82-4.26h-16v9.59h-3.35V.27zm36.42 0h23.83v2.68h-20.55v7.74h19.74v2.68h-19.74v8.49h20.68v2.68h-23.96V.27zm31.93 0h4.89l22.23 21.32V.27h3.28v24.27h-4.89L170.75 3.22v21.32h-3.28V.27zm39.18 8.81c0-6.08 2.08-9.08 8.64-9.08h12.57c6 0 7.61 2.78 7.61 6v2.11h-2.88V7c0-4.13-2.55-4.33-5.56-4.33h-11.4c-3.15 0-5.7.94-5.7 5.16V17c0 4.23 2.55 5.16 5.7 5.16h11.5c4.42 0 5.69-.93 5.69-4.22v-1.55h3.09V18c0 4.4-1.41 6.78-8.21 6.78h-12.41c-6.56 0-8.64-2.95-8.64-9.09V9.08zM244.38.27h3.29v10.42h21.92V.27h3.28v24.27h-3.28V13.37h-21.92v11.17h-3.29V.27zM0 47.76c0-6.13 2.08-9.08 8.65-9.08h12.57c6 0 7.61 2.78 7.61 6v2.08h-2.89v-1.08c0-4.12-2.54-4.32-5.56-4.32H9c-3.15 0-5.7.94-5.7 5.16v9.12c0 4.22 2.55 5.16 5.7 5.16h11.5c4.42 0 5.7-.94 5.7-4.22v-1.51h3.08v1.64c0 4.4-1.41 6.77-8.21 6.77H8.65C2.08 63.48 0 60.54 0 54.4v-6.64zm65.09-1.24c0-4.22-2.55-5.16-5.7-5.16H46.08c-3.15 0-5.7.94-5.7 5.16v9.12c0 4.22 2.55 5.16 5.7 5.16h13.31c3.15 0 5.7-.94 5.7-5.16v-9.12zm-28 1.24c0-6.13 2.08-9.08 8.65-9.08h14c6.58 0 8.65 3 8.65 9.08v6.64c0 6.14-2.07 9.08-8.65 9.08h-14c-6.57 0-8.65-2.94-8.65-9.08v-6.64zm40.06-8.81h4.89l22.22 21.32V38.95h3.29v24.27h-4.89L80.43 41.9v21.32h-3.28V38.95zm39.61 0h4.9l22.22 21.32V38.95h3.28v24.27h-4.89L120.05 41.9v21.32h-3.29V38.95zm39.81 0h23.84v2.68h-20.55v7.74h19.74v2.68h-19.74v8.49h20.68v2.68h-23.97V38.95zm31.5 8.81c0-6.13 2.08-9.08 8.65-9.08h12.57c6 0 7.61 2.78 7.61 6v2.08H214v-1.08c0-4.12-2.54-4.32-5.56-4.32h-11.4c-3.15 0-5.69.94-5.69 5.16v9.12c0 4.22 2.54 5.16 5.69 5.16h11.5c4.42 0 5.7-.94 5.7-4.22v-1.51h3.08v1.64c0 4.4-1.41 6.77-8.21 6.77h-12.4c-6.57 0-8.65-2.94-8.65-9.08v-6.64zm47.36-6.13h-12.27v-2.68h27.82v2.68h-12.27v21.59h-3.28V41.63zm22.61-2.68h3.29v24.27h-3.29V38.95zm40.36 7.57c0-4.22-2.55-5.16-5.7-5.16h-13.31c-3.15 0-5.7.94-5.7 5.16v9.12c0 4.22 2.55 5.16 5.7 5.16h13.31c3.15 0 5.7-.94 5.7-5.16v-9.12zm-28 1.24c0-6.13 2.08-9.08 8.64-9.08h14c6.57 0 8.65 3 8.65 9.08v6.64c0 6.14-2.08 9.08-8.65 9.08h-14c-6.56 0-8.64-2.94-8.64-9.08v-6.64zm40.05-8.81h4.9l22.22 21.32V38.95h3.29v24.27h-4.9L313.74 41.9v21.32h-3.29V38.95z"/></svg>