<svg data-name="Слой 1" xmlns="http://www.w3.org/2000/svg" viewBox="0 0 440 48.88"><path d="M29.54 3.35H23.3L5.57 23.76h-.06V3.35H0v42.84h5.51V25.83h.06l17.59 20.36h7.12l-19.07-21.9L29.54 3.35zm231.27 0l-11.48 23.47c-1.88 3.75-3.9 7.86-5.37 11.49h-.14c-1.54-3.63-3.76-7.93-5.5-11.43L226.77 3.36h-3.49L219.7 46.2h4.92l1.74-20.75c.27-2.89.54-6.85.67-10.35h.14c1.55 3.43 3.43 8 5 11l11.68 22.73L255 26.15c1.55-3.09 3.7-7.89 5.11-11.18h.13c.13 3.36.4 7.25.68 10.48l1.74 20.75h5.24l-3.6-42.84h-3.49zM33.6 46.18H39l4.7-11.54h17.4l4.8 11.54h5.57L52.53 0zm25.61-15.89H45.59l4.69-11.82a57.38 57.38 0 002.08-6h.13c.61 2 1.35 4.32 2 6zm44.12-15.13c0-7.72-6.44-11.82-12.75-11.82H78.23v42.84h5.43V27h5.84l13.83 19.2h6.85L95.35 26.1a11.24 11.24 0 008-10.94m-19.69 7.25V8.11h6c4.31 0 8.07 2.55 8.07 7.19s-3.77 7.11-8 7.11zm39.75 4.65h14.3v-4.77h-14.3V8.12h17.19V3.35h-22.7v42.84h25.11v-4.76h-19.6V27.06zM280.17 3.35h5.55v42.84h-5.55zm25.82 0h-5.51v42.83h24.91v-4.77h-19.4V3.35zm33.2 0h-5.51v42.83h24.91v-4.77h-19.4V3.35zm33.12 23.7h14.3v-4.77h-14.3V8.11h17.19V3.34h-22.7v42.84h25.11v-4.76h-19.6V27.05zM434.5 3.33v21.52c0 3.35 0 7.11.13 10.66l-.13.07c-2.75-3.42-6.64-7.84-9.32-10.86L406.07 3.33h-3.82v42.78h5.49V23.58c0-3.56 0-7.38-.13-11.27l.13-.07c3 3.56 6.78 8 10.13 11.81L440 48.69V3.33zm-250.27 0v21.52c0 3.35 0 7.11.13 10.66l-.13.07c-2.75-3.42-6.64-7.84-9.32-10.86L155.8 3.33H152v42.78h5.49V23.58c0-3.56 0-7.38-.13-11.27l.13-.07c2.95 3.56 6.78 8 10.13 11.81l22.13 24.64V3.33z"/></svg>