<svg xmlns="http://www.w3.org/2000/svg" viewBox="0 0 426.8 141"><path d="M341.2 113.8h-23.4v18.3h25.1v7.4h-33.8V81.1h33v7.6h-24.3v17.6h23.4v7.5zm-219.5-7.7v7.6H98.1v18.4h25c.1 2.7.3 4.7.4 7.3H89.6V81.1h33.1v7.3H98.1v17.7h23.6zm-96.1 34.2C17.2 120.8 8.8 101.4 0 81.1c3.2-.2 5.5-.3 8.4-.5C14.2 94 20 107.2 25.7 120.4c.4.1.8.2 1.3.3 5.8-13.3 11.5-26.5 17.3-39.8h8.4c-8.5 20.2-16.8 39.8-25.1 59.4h-2zm220.1.7c-8.7-20.2-17.1-39.7-25.9-59.8h8.5c5.7 13 11.4 26.2 17.2 39.4h1.3c5.7-13.2 11.4-26.4 17.2-39.6h6.8c.7 3.2-20.3 54.3-25.1 60zm181.1-59.9v7.5h-20.3v50.9h-8.7V88.4h-20.1v-7.3h49.1zm-264.2 58.4V81.2h8.1v51h26.8v7.3h-34.9zM67.4.6c1.1-.2 1.9-.5 2.7-.5 1.6-.1 3.3 0 5 0 6.6 8 13 15.7 19.9 24.1 6.8-8.3 13.2-16 19.7-23.9h7.5v58.6h-7.7V15.1c-.5-.2-.9-.3-1.4-.5-5.9 7.2-11.8 14.4-18.2 22.3-6.3-7.8-12-14.9-17.8-22.1-.4.1-.8.2-1.2.4v43.5h-8.6c.1-19.5.1-38.8.1-58.1zM217.2.2h6.6c12.9 14.5 25.9 29.3 39 44.1.4-.1.7-.2 1.1-.4V.4h7.8v58.3c-2.3.1-4.5.3-6.9.5-13-14.8-25.9-29.5-38.8-44.2l-.9.3v43.3h-7.8c-.1-19.5-.1-38.7-.1-58.4zm121.9 58.7h-8.3v-51h-20.5c-.1-2.8-.3-4.9-.4-7.4h49.4v7.2H339c.1 17.5.1 34 .1 51.2zm-173.2-.2V.4h7.7v58.3h-7.7z" fill="#444"/></svg>